<?xml version="1.0" encoding="UTF-8"?> <svg xmlns="http://www.w3.org/2000/svg" width="27" height="27" viewBox="0 0 27 27" fill="none"><path d="M5.38571 1.96585C4.44134 1.02148 2.91022 1.02148 1.96585 1.96585C1.02148 2.91022 1.02148 4.44134 1.96585 5.38571L3.67578 3.67578L5.38571 1.96585ZM24.1819 26.6001C25.5174 26.6001 26.6001 25.5174 26.6001 24.1819V2.41799C26.6001 1.08245 25.5174 -0.000217587 24.1819 -0.000216912C22.8463 -0.000218261 21.7637 1.08245 21.7637 2.41799V21.7637H2.41799C1.08245 21.7637 -0.000218261 22.8463 -0.000216912 24.1819C-0.000217587 25.5174 1.08245 26.6001 2.41799 26.6001H24.1819ZM3.67578 3.67578L1.96585 5.38571L22.4719 25.8918L24.1819 24.1819L25.8918 22.4719L5.38571 1.96585L3.67578 3.67578Z" fill="white"></path></svg> 